<?xml version="1.0" encoding="iso-8859-1"?>
<!-- Generator: Adobe Illustrator 16.0.0, SVG Export Plug-In . SVG Version: 6.00 Build 0)  -->
<!DOCTYPE svg PUBLIC "-//W3C//DTD SVG 1.1//EN" "http://www.w3.org/Graphics/SVG/1.1/DTD/svg11.dtd">
<svg version="1.1" xmlns="http://www.w3.org/2000/svg" viewBox="0 0 137.769 137.77" style="enable-background:new 0 0 137.769 137.77;" xml:space="preserve">
<g>
	<path d="M137.71,31.685c0.349-1.413-0.928-2.995-2.341-3.391c-0.301-0.098-0.58-0.187-0.886-0.264
		c-16.358-4.1-33.181-0.562-47.05,8.838L71.039,15.438c-1.018-1.334-3.264-1.334-4.295,0L50.291,36.961
		c-9.933-6.776-21.444-10.615-33.297-10.615c-4.601,0-9.196,0.566-13.658,1.685c-0.319,0.077-0.619,0.172-1.36,0.409
		c-1.402,0.396-2.246,1.837-1.896,3.264l19.126,76.499c0.103,0.364,0.282,0.686,0.503,0.971c0,0.058-0.031,0.105-0.031,0.153
		c0,11.079,32.21,14.006,49.23,14.006c17.027,0,49.217-2.927,49.217-14.006c0-0.059-0.032-0.111-0.032-0.153
		c0.222-0.285,0.401-0.602,0.501-0.971L137.71,31.685z M68.898,21.523l14.186,18.555c-2.479,1.999-4.857,4.137-7.082,6.523
		c-7.438,8.852-13.189,21.553-13.514,40.044c-0.031,1.472-1.236,2.652-2.7,2.652c-0.021,0-0.031,0-0.053,0
		c-1.487-0.031-2.679-1.26-2.647-2.752c0.253-14.624,3.726-25.985,8.806-34.808c-3.335-4.348-7.153-8.171-11.285-11.51
		L68.898,21.523z M11.641,40.125c-1.371,0.087-2.721-1.145-2.763-2.634c-0.04-1.49,1.149-2.727,2.634-2.766
		c1.171-0.026,30.277-0.469,44.782,19.688c0.87,1.211,0.588,2.9-0.609,3.771c-0.482,0.341-1.033,0.507-1.582,0.507
		c-0.833,0-1.669-0.388-2.193-1.124C39.053,39.688,11.939,40.099,11.641,40.125z M68.914,117.927
		c-28.912,0-43.825-6.033-43.825-8.611c0-2.579,14.914-8.612,43.825-8.612c28.909,0,43.817,6.033,43.817,8.612
		C112.731,111.894,97.823,117.927,68.914,117.927z"/>
</g>
</svg>
