<?xml version="1.0" encoding="iso-8859-1"?>
<!-- Generator: Adobe Illustrator 16.0.0, SVG Export Plug-In . SVG Version: 6.00 Build 0)  -->
<!DOCTYPE svg PUBLIC "-//W3C//DTD SVG 1.1//EN" "http://www.w3.org/Graphics/SVG/1.1/DTD/svg11.dtd">
<svg version="1.1" xmlns="http://www.w3.org/2000/svg" viewBox="0 0 195.387 195.388" style="enable-background:new 0 0 195.387 195.388;" xml:space="preserve">
<g>
	<path d="M194.299,67.835c-1.035-0.898-2.539-1.011-3.708-0.268l-32.735,20.771l-8.476-18.35c-0.354-0.768-0.993-1.355-1.784-1.635
		c-0.792-0.286-1.662-0.237-2.411,0.131l-22.317,10.823l-10.984-16.511c5.139-4.214,8.123-10.413,8.123-17.132
		c0-12.315-10.005-22.317-22.311-22.317c-12.304,0-22.311,10.001-22.311,22.317c0,6.719,2.987,12.918,8.126,17.132L72.967,78.668
		L50.121,68.454c-1.559-0.718-3.379-0.024-4.104,1.535L37.37,88.706L4.82,67.58c-1.154-0.749-2.67-0.648-3.723,0.243
		c-1.054,0.892-1.389,2.375-0.828,3.635l38.285,86.527c0.073,0.152,0.216,0.231,0.305,0.371
		c4.01,10.742,38.143,13.683,58.849,13.683c20.691,0,54.827-2.947,58.84-13.683c0.085-0.134,0.231-0.207,0.304-0.371l38.283-86.527
		C195.669,70.204,195.341,68.733,194.299,67.835z M42.713,92.003l7.669-16.611l19.087,8.531l-11.886,17.891l-14.952-9.707
		C42.643,92.07,42.701,92.052,42.713,92.003z M38.728,112.079c-1.446-0.919-1.875-2.85-0.935-4.293
		c0.916-1.461,2.85-1.881,4.296-0.949l19.05,12.178l28.899-43.248c0.959-1.428,2.898-1.802,4.327-0.853
		c1.428,0.953,1.814,2.887,0.861,4.32l-30.604,45.778c-0.597,0.901-1.583,1.389-2.594,1.389c-0.572,0-1.157-0.152-1.684-0.5
		L38.728,112.079z M97.702,165.81c-33.378,0-52.251-6.26-53.006-9.56c0.703-3.258,20.073-9.621,53.006-9.621
		c32.93,0,52.293,6.363,52.994,9.561C149.94,159.55,131.07,165.81,97.702,165.81z M137.469,101.277l-11.1-16.724l18.693-9.073
		l7.483,16.237L137.469,101.277z"/>
</g>
</svg>
